<?xml version="1.0" encoding="UTF-8"?><!DOCTYPE svg PUBLIC "-//W3C//DTD SVG 1.1//EN" "http://www.w3.org/Graphics/SVG/1.1/DTD/svg11.dtd"><svg xmlns="http://www.w3.org/2000/svg" xmlns:xlink="http://www.w3.org/1999/xlink" version="1.1" width="24" height="24" viewBox="0 0 24 24"><path d="M18,1H6A2,2 0 0,0 4,3V5A2,2 0 0,0 6,7H18A2,2 0 0,0 20,5V3A2,2 0 0,0 18,1M8,5H6V3H8V5M18,9H6A2,2 0 0,0 4,11V13A2,2 0 0,0 6,15H18A2,2 0 0,0 20,13V11A2,2 0 0,0 18,9M8,13H6V11H8V13M18,17H6A2,2 0 0,0 4,19V21A2,2 0 0,0 6,23H18A2,2 0 0,0 20,21V19A2,2 0 0,0 18,17M8,21H6V19H8V21Z" /></svg>